# xmcd CD database file
#
# Track frame offsets:
#	187
#	24640
#	47772
#	61145
#	82000
#	98337
#	116047
#	134245
#	152670
#	179315
#	216462
#	233617
#
# Disc length: 3480 seconds
#
# Revision: 0
# Processed by: cddbd v1.5.2PL0 Copyright (c) Steve Scherf et al.
# Submitted via: CDex 1.70beta2
#
DISCID=a20d960c
DTITLE=Dorothy Donegan - The Explosive Dorothy Donegan
DYEAR=1900
DGENRE=Jazz
TTITLE0=Lover (take 1)
TTITLE1=The lady is a tramp (take 2)
TTITLE2=I like the likes of you (take 1)
TTITLE3=The man I love (take 3)
TTITLE4=Medley (take 1) - Downtown, Matilda, Bye, bye black bird
TTITLE5=I just want to sing (take 1)
TTITLE6=Love for sale (take 1)
TTITLE7=Without a song (take 1)
TTITLE8=Donegan's Blues (take 1)
TTITLE9=Medley (take 5) - The man I love, Rhapsody in Blue themes
TTITLE10=Wave (take 1)
TTITLE11=St. Louis Blues (take 1)
EXTD=
EXTT0=
EXTT1=
EXTT2=
EXTT3=
EXTT4=
EXTT5=
EXTT6=
EXTT7=
EXTT8=
EXTT9=
EXTT10=
EXTT11=
PLAYORDER=
